# xmcd
#
# Track frame offsets:
#	150
#	17867
#	36992
#
# Disc length: 772 seconds
#
# Revision: 0
# Processed by: cddbd v1.5.2PL0 Copyright (c) Steve Scherf et al.
# Submitted via: EasyCDDAExtractor 11.1.0.1
#
DISCID=1f030203
DTITLE=Nelson - promo
DYEAR=1900
DGENRE=country
TTITLE0=Love and affection
TTITLE1=Will you love me
TTITLE2=Fill you up
EXTD=
EXTT0=
EXTT1=
EXTT2=
PLAYORDER=
